<svg width="29" height="25" viewBox="0 0 29 25" fill="none" xmlns="http://www.w3.org/2000/svg">
<path fill-rule="evenodd" clip-rule="evenodd" d="M0.569666 0.0464151C0.34595 0.138258 0.063675 0.504747 0.0127764 0.769535C-0.0530923 1.11243 0.143261 1.57355 0.42839 1.74568C0.639922 1.87328 0.779806 1.88287 2.52999 1.88919C4.55361 1.89647 4.74342 1.92488 4.96407 2.25371C5.02841 2.34963 5.13974 2.68091 5.21146 2.98995C5.37836 3.7096 5.98044 6.18529 7.37336 11.8796C7.67973 13.1321 8.00796 14.4782 8.10272 14.8707C8.19755 15.2633 8.36626 15.9517 8.47774 16.4003C8.58922 16.849 8.75932 17.5437 8.85569 17.9441C8.95212 18.3445 9.08058 18.788 9.14123 18.9297C9.24818 19.1796 9.24672 19.191 9.09117 19.3087C8.45302 19.7916 7.95803 20.4752 7.78403 21.1138C7.65494 21.5878 7.68606 22.4128 7.85108 22.8912C8.03337 23.4195 8.23481 23.7319 8.66226 24.1492C9.85924 25.318 11.9982 25.2728 13.1657 24.0542C13.9733 23.2112 14.2422 22.0391 13.8805 20.9381L13.8302 20.7851H17.3239C20.6234 20.7851 20.8147 20.7917 20.7681 20.9041C20.741 20.9695 20.6856 21.2268 20.6449 21.4756C20.4929 22.4056 20.845 23.4197 21.5635 24.1208C22.9372 25.4612 25.3426 25.2365 26.4087 23.6682C26.7895 23.1081 26.9435 22.6155 26.9485 21.9408C26.9594 20.4783 26.0317 19.2808 24.5973 18.9062C24.319 18.8335 22.9992 18.8151 18.0219 18.8145C11.9379 18.8137 11.7882 18.8106 11.5071 18.6777C11.3246 18.5915 11.167 18.4484 11.0762 18.2868C10.902 17.9767 10.66 17.0273 10.7478 16.9986C10.7826 16.9874 14.1479 16.9705 18.2264 16.9611L25.6417 16.9442L25.8908 16.7929C26.0278 16.7097 26.1784 16.5593 26.2254 16.4587C26.2723 16.3581 26.4794 15.5849 26.6856 14.7405C26.8918 13.8961 27.1698 12.7616 27.3034 12.2195C27.4371 11.6773 27.7406 10.4384 27.9779 9.46621C28.2152 8.49408 28.531 7.20923 28.6797 6.61099C29.0501 5.12029 29.0802 4.77623 28.8676 4.46957C28.7769 4.3387 28.5935 4.17813 28.4603 4.1128C28.2329 4.00117 27.5825 3.9939 17.8654 3.99383C8.06533 3.9937 7.51095 3.98737 7.4785 3.87473C7.45963 3.80926 7.34412 3.32748 7.22171 2.80402C6.86256 1.26723 6.48587 0.701894 5.49408 0.211203L5.10124 0.0167753L2.90794 0.00181928C1.70162 -0.00633851 0.649391 0.0137159 0.569666 0.0464151ZM13.0154 7.39278C13.0791 8.15927 13.1473 8.94704 13.167 9.1433L13.2029 9.50021H11.0275H8.85213L8.45233 7.85165C8.23244 6.94491 8.03636 6.14919 8.01673 6.08325C7.98289 5.97013 8.11915 5.96442 10.4403 5.98127L12.8996 5.99915L13.0154 7.39278ZM19.8279 6.11812C19.8282 6.33315 19.6243 8.86152 19.5785 9.21128L19.5406 9.50021H17.3842C15.7203 9.50021 15.2215 9.48083 15.2002 9.41523C15.1849 9.36852 15.1143 8.57314 15.0433 7.64771L14.9141 5.96516H17.3708H19.8277L19.8279 6.11812ZM26.6333 6.52601C26.5576 6.83444 26.3655 7.62221 26.2064 8.27654L25.9172 9.46621L23.7428 9.48416C22.5469 9.49409 21.569 9.47879 21.5697 9.45017C21.5704 9.42162 21.6328 8.66403 21.7084 7.76667C21.7839 6.86932 21.846 6.09691 21.8463 6.05014C21.8468 5.98379 22.3861 5.96516 24.3089 5.96516H26.7709L26.6333 6.52601ZM13.3527 11.4887C13.3554 11.5904 13.5698 14.2031 13.6038 14.5491L13.649 15.0092L11.9182 14.9909L10.1873 14.9727L10.1074 14.6328C10.0326 14.3145 9.76211 13.2087 9.46312 11.9985L9.33292 11.4717H11.3426C12.4479 11.4717 13.3524 11.4794 13.3527 11.4887ZM19.3734 11.8286C19.3245 12.2907 19.1314 14.731 19.1314 14.8871C19.1314 14.9981 19.0059 15.0067 17.3907 15.0067C16.4333 15.0067 15.6495 14.9838 15.6489 14.9557C15.6482 14.9276 15.5857 14.2011 15.51 13.3412C15.4342 12.4812 15.372 11.7088 15.3718 11.6246L15.3715 11.4717H17.3913H19.4111L19.3734 11.8286ZM25.398 11.5309C25.398 11.591 24.6567 14.6697 24.5896 14.8877C24.5561 14.9969 24.4117 15.0067 22.8519 15.0067H21.1506L21.1499 14.8538C21.1486 14.6039 21.3673 11.7908 21.4009 11.6246L21.4318 11.4717H23.4149C24.5056 11.4717 25.398 11.4983 25.398 11.5309ZM11.4025 20.887C11.6764 21.0253 11.9578 21.4008 12.0063 21.6928C12.1302 22.4383 11.6162 23.0332 10.8429 23.039C9.66226 23.0479 9.25723 21.5104 10.2866 20.9274C10.582 20.7601 11.113 20.7409 11.4025 20.887ZM24.3197 20.8921C24.6159 21.0293 24.9121 21.4471 24.9599 21.7952C24.9872 21.9945 24.9554 22.1518 24.841 22.3825C24.5134 23.0434 23.7431 23.2583 23.1567 22.8524C22.4459 22.3604 22.4296 21.4712 23.1225 20.9812C23.4466 20.752 23.9382 20.7154 24.3197 20.8921Z" fill="black"/>
</svg>
