<svg width="25" height="21" viewBox="0 0 25 21" fill="none" xmlns="http://www.w3.org/2000/svg">
<path fill-rule="evenodd" clip-rule="evenodd" d="M6.83501 0.919865C6.48103 0.955741 5.76222 1.11861 5.42003 1.24045C3.26717 2.00716 1.77207 3.80816 1.46973 5.99904C1.40526 6.46608 1.4407 7.43045 1.5384 7.86907C1.75732 8.85168 2.24856 9.80544 2.9092 10.5303C3.03776 10.6714 3.80292 11.4611 4.60953 12.2851C5.41618 13.1092 7.12364 14.8558 8.40391 16.1665C10.6353 18.451 12.0633 19.9101 12.2703 20.1171C12.3897 20.2366 12.5523 20.2793 12.751 20.2433C12.9144 20.2137 12.52 20.6113 21.3215 11.6026C22.5156 10.3805 22.6993 10.1678 23.0246 9.63056C24.3678 7.4126 24.0387 4.63042 22.2113 2.75415C20.5756 1.07468 18.1923 0.486793 15.9189 1.20202C15.5042 1.33253 14.8793 1.62937 14.461 1.89459C14.0201 2.1741 13.1479 3.00888 12.8482 3.43814L12.6292 3.75175L12.4721 3.52479C11.573 2.2258 10.2011 1.32937 8.63888 1.02004C8.19433 0.931996 7.23879 0.878919 6.83501 0.919865ZM8.3769 2.00365C10.0345 2.28676 11.4808 3.46951 12.1055 5.0527C12.241 5.39617 12.5387 5.54786 12.8392 5.42654C12.9818 5.369 13.028 5.31388 13.1422 5.06487C13.6273 4.00687 14.0807 3.42631 14.8578 2.86823C15.257 2.58157 15.4981 2.44716 15.8978 2.28845C17.4539 1.67058 19.1839 1.83007 20.5842 2.72052C20.9828 2.97395 21.6073 3.56349 21.8759 3.93984C22.2999 4.53388 22.5839 5.1787 22.7145 5.84345C22.8026 6.29216 22.8016 7.15462 22.7125 7.60862C22.5929 8.21722 22.2944 8.91096 21.9292 9.42891C21.7158 9.73156 20.9454 10.5366 18.3427 13.1769C18.1548 13.3675 17.5359 14.0012 16.9674 14.585C14.5135 17.1053 12.6719 18.9838 12.644 18.9951C12.6274 19.0017 11.9999 18.3781 11.2496 17.6092C9.43642 15.7511 8.0039 14.2859 5.72983 11.9636C3.36124 9.5449 3.32459 9.50283 2.97312 8.80064C2.45092 7.75746 2.33142 6.54507 2.64211 5.44253C2.86685 4.64502 3.49752 3.6683 4.13268 3.13401C5.34288 2.11604 6.78558 1.7318 8.3769 2.00365Z" fill="black" stroke="black" stroke-width="1.01856"/>
</svg>
