<svg width="102" height="45" viewBox="0 0 102 45" fill="none" xmlns="http://www.w3.org/2000/svg">
<path fill-rule="evenodd" clip-rule="evenodd" d="M48.0218 0.0171367C41.1274 0.314041 37.5355 0.661213 32.5535 1.51199C21.2723 3.43859 12.4494 6.78383 6.44844 11.4098C4.49269 12.9175 2.36693 15.3232 1.37077 17.1563C0.142367 19.4167 -0.293121 22.1716 0.197461 24.5789C0.722581 27.1563 1.95413 29.291 4.26388 31.6275C5.63007 33.0096 6.72207 33.8953 8.57818 35.1267C16.6503 40.4816 29.9723 44.0506 45.0123 44.8877C47.7036 45.0374 54.3915 45.0374 57.0037 44.8877C75.48 43.8281 90.643 38.8792 97.8464 31.5575C99.908 29.462 101.138 27.3635 101.746 24.9034C101.965 24.017 102 23.6853 102 22.5119C102 21.3385 101.965 21.0068 101.746 20.1204C101.287 18.2633 100.686 17.0162 99.4277 15.3059C93.4412 7.17047 76.9169 1.24178 57.1889 0.151403C55.3578 0.0502111 49.3104 -0.0383919 48.0218 0.0171367ZM55.2444 1.274C55.5499 1.31243 55.7225 1.35011 55.628 1.35772C55.5019 1.36786 55.4741 1.41531 55.5239 1.53595C55.5613 1.62634 55.6932 2.01617 55.817 2.40205C56.2943 3.89014 56.3081 4.20772 56.3087 13.7034L56.3092 22.5119L54.573 22.5354C51.4273 22.5779 50.2714 22.5189 49.457 22.2741C49.3343 22.2372 49.3241 21.1237 49.3688 12.718C49.4067 5.59471 49.4481 3.09743 49.5338 2.78089C49.5968 2.54834 49.7336 2.09387 49.838 1.77085L50.0277 1.18362L52.3583 1.19386C53.64 1.1994 54.9388 1.23548 55.2444 1.274ZM45.1049 1.37153C45.1049 1.42321 45.0449 1.46549 44.9716 1.46549C44.8644 1.46549 44.8834 1.59928 45.0686 2.14668C45.4947 3.40683 45.5765 3.97132 45.6315 6.03011L45.6843 8.01082L45.2475 9.1307C45.0073 9.74659 44.5412 10.8158 44.2119 11.5068C43.5337 12.9298 43.0154 13.5521 42.1418 13.9925L41.6325 14.2494L41.6052 13.5283L41.578 12.8071L40.6979 12.8605L39.8177 12.9138L40.0111 12.6157C40.7065 11.5435 40.8996 10.824 41.0368 8.79414C41.1326 7.37558 41.1034 6.72709 40.9438 6.72709C40.8129 6.72709 40.7537 6.98772 40.6152 8.17421C40.4604 9.49957 40.2989 10.0969 39.8506 11.0019C39.2475 12.2194 38.6675 12.9283 38.2743 12.9283H38.0626L38.0882 8.17994C38.1103 4.08407 38.1329 3.41857 38.2527 3.33645C38.4761 3.1833 39.3445 3.31297 39.8816 3.57962C40.5076 3.89033 40.9488 4.40888 41.4005 5.36471C42.0113 6.65709 42.2279 7.91893 42.5137 11.8477C42.6164 13.2598 42.7332 13.7097 42.8471 13.1319C42.8798 12.966 42.9428 12.8076 42.9872 12.7798C43.0315 12.752 43.0678 10.1975 43.0678 7.1031V1.47704L43.4613 1.42349C43.6777 1.39399 44.1049 1.35715 44.4105 1.34146C44.716 1.32587 44.9973 1.3051 45.0355 1.29533C45.0737 1.28556 45.1049 1.31985 45.1049 1.37153ZM62.467 1.74163C63.3837 1.83934 64.5807 1.97257 65.127 2.03787L66.1203 2.15654L66.351 2.86798C66.4778 3.25932 66.6329 3.76978 66.6955 4.00233C66.7812 4.32009 66.8221 7.11165 66.8605 15.2403L66.9117 26.0554L66.5693 25.6608C66.0637 25.0779 65.0113 24.2332 64.5108 24.0085C64.2698 23.9003 63.1584 23.612 62.0411 23.3679L60.0096 22.9241L60.0122 13.4757C60.014 7.38103 60.049 3.83123 60.1109 3.47457C60.2598 2.61749 60.5847 1.55916 60.698 1.56179C60.7542 1.56311 61.5503 1.644 62.467 1.74163ZM33.9329 3.22718C34.3702 4.59604 34.3788 4.70616 34.4288 9.56844L34.4769 14.2421L34.1985 14.5636C33.7329 15.1017 33.6901 15.3721 33.8004 17.0749C33.893 18.5032 33.8882 18.6109 33.7221 18.885C33.625 19.0452 33.3749 19.5781 33.1663 20.069C32.7948 20.9435 32.7616 20.9865 31.5251 22.1896L30.2629 23.4176L30.1892 23.9682C30.1058 24.592 30.2085 24.9317 30.6081 25.3541C30.9184 25.6822 31.0916 25.6785 31.7733 25.3294C32.3772 25.0201 33.4 24.7669 34.0456 24.7669H34.4562L34.4522 32.3539C34.4482 39.8476 34.4009 41.4534 34.1618 42.2036L34.0395 42.5871L33.021 42.4207C32.4608 42.329 31.8673 42.2286 31.7022 42.1974L31.402 42.1407L31.3781 36.4917C31.3611 32.4683 31.3248 30.8327 31.2518 30.8081C31.1324 30.7677 31.011 31.3658 30.7993 33.0351C30.3709 36.4134 29.2725 39.8652 28.2166 41.1512C28.0215 41.3889 27.9535 41.4142 27.6603 41.3584C27.4765 41.3234 27.3262 41.2402 27.3262 41.1733C27.3262 41.029 28.1727 32.8999 29.0394 24.7199C29.1653 23.5313 29.4551 20.7408 29.6835 18.5187C29.9118 16.2966 30.1394 14.098 30.1892 13.6329C30.3552 12.0841 30.4744 10.9338 30.7979 7.76061C31.1372 4.43115 31.3033 2.94221 31.3394 2.90557C31.3675 2.8771 33.3406 2.5225 33.5458 2.50907C33.6595 2.50165 33.7617 2.69125 33.9329 3.22718ZM72.2994 3.21121C72.9521 3.34453 73.5219 3.48867 73.5656 3.53151C73.7053 3.66822 73.9771 4.80801 74.0857 5.7115C74.2085 6.73413 74.1796 40.9364 74.0556 41.2653C73.9949 41.426 73.8089 41.4985 73.0392 41.6611C72.521 41.7706 71.9279 41.887 71.7213 41.9198L71.3454 41.9793L70.9047 38.94L70.464 35.9008L70.4987 20.2099C70.5255 8.11361 70.5596 4.42222 70.6481 4.09629C70.7112 3.86374 70.8042 3.51497 70.8548 3.32114C70.9054 3.1274 70.9841 2.9688 71.0297 2.9688C71.0753 2.9688 71.6466 3.07788 72.2994 3.21121ZM27.2842 4.58956C27.2564 4.75756 27.0868 6.31133 26.9071 8.04249C26.7276 9.77364 26.541 11.5706 26.4927 12.0357C26.4443 12.5008 26.2152 14.6782 25.9836 16.8745C25.7519 19.0707 25.523 21.2482 25.4749 21.7132C25.4269 22.1783 25.2391 23.933 25.0576 25.6125C24.8761 27.292 24.6883 29.0508 24.6402 29.521C24.592 29.9912 24.3881 31.8939 24.1871 33.7491C23.986 35.6043 23.7494 37.8198 23.661 38.6725C23.5728 39.5252 23.488 40.2387 23.4726 40.2581C23.3996 40.3504 21.8368 39.8311 21.762 39.6898C21.5972 39.3781 21.3854 37.571 20.7068 30.6862C19.8876 22.3759 19.6961 20.4698 18.7145 10.8621C18.469 8.45966 18.2868 6.46354 18.3095 6.42623C18.3548 6.35191 22.374 5.00091 22.8576 4.89755L23.1576 4.83338L23.1817 9.53856C23.1969 12.5325 23.2389 14.2522 23.2969 14.2671C23.3472 14.2801 23.4014 14.2061 23.4175 14.1027C23.4335 13.9994 23.4834 13.8302 23.5283 13.7269C23.5732 13.6235 23.677 12.8625 23.7591 12.0357C24.2421 7.16436 25.0202 5.10313 26.6099 4.48311C27.2895 4.21805 27.3441 4.2267 27.2842 4.58956ZM79.0887 5.27103C80.0808 5.78112 80.9643 7.09173 81.4001 8.70018C81.6018 9.44442 81.7953 10.9848 81.9609 13.1631C82.0158 13.8866 82.0825 14.5532 82.109 14.6444C82.1749 14.8706 82.3291 14.7544 82.3291 14.4785C82.3291 14.3555 82.3708 14.2286 82.4217 14.1967C82.4812 14.1594 82.5143 12.6746 82.5143 10.0507V5.96274L82.7146 6.02729C82.8247 6.06271 83.0539 6.15075 83.2239 6.22282L83.5329 6.35379V10.479C83.5329 12.7478 83.5581 14.6708 83.5889 14.7521C83.6677 14.9606 83.8107 14.8412 83.8107 14.567C83.8107 14.4408 83.8481 14.3376 83.894 14.3376C83.9397 14.3376 84.0051 14.0311 84.0393 13.6564C84.1335 12.6257 84.4481 10.4524 84.605 9.74818C84.7998 8.87429 85.1668 7.76935 85.3802 7.41429L85.5602 7.11485L86.0281 7.31544L86.496 7.51604V22.518V37.5199L85.3154 37.9965C84.2422 38.4297 82.6121 39.0483 82.5439 39.0483C82.5287 39.0483 82.5054 37.1175 82.4921 34.7576C82.4743 31.589 82.4398 30.4574 82.3599 30.4303C82.2004 30.3764 82.0741 31.1694 81.96 32.9411C81.7973 35.4668 81.6228 36.4964 81.1203 37.8963C80.8857 38.5495 80.3389 39.6444 80.184 39.7706C80.1161 39.8259 79.5545 40.0176 78.9359 40.1965L77.8113 40.5218L77.7563 40.1844C77.6759 39.6913 77.7003 17.1983 77.7819 16.6174C77.8198 16.3469 77.8763 16.0998 77.9073 16.0682C78.0321 15.9417 78.5746 16.1617 78.921 16.4793C79.8646 17.3442 80.2949 19.0051 80.569 22.8407C80.6282 23.6676 80.6954 24.4409 80.7185 24.5593C80.7718 24.8329 80.9402 24.7365 80.9402 24.4325C80.9402 24.3063 80.9822 24.2031 81.0336 24.2031C81.0956 24.2031 81.1189 22.5021 81.1031 19.1529L81.0791 14.1027L79.6901 13.9801C78.9262 13.9127 78.1641 13.8365 77.9967 13.8108L77.6922 13.764L77.7189 9.47044C77.7335 7.10893 77.7821 5.11938 77.8267 5.0492C77.9376 4.87453 78.5151 4.97601 79.0887 5.27103ZM14.1774 8.35236C14.1774 8.47112 14.072 9.58103 13.9433 10.8187C13.8145 12.0565 13.6283 13.8725 13.5295 14.8544C13.261 17.5213 12.6358 23.5759 12.37 26.0823C12.2412 27.2966 12.0513 29.0936 11.9481 30.0754C11.8448 31.0573 11.6792 32.6106 11.5799 33.5271C11.4807 34.4438 11.3994 35.2608 11.3994 35.3428C11.3994 35.5132 10.8806 35.2413 9.56712 34.3822L8.79977 33.8803L8.82634 26.0116L8.85301 18.1429L9.19062 17.1563C9.37628 16.6137 9.51074 16.1512 9.48935 16.1284C9.4299 16.0651 5.16004 16.6943 5.07105 16.7796C5.02818 16.8206 5.03855 16.9405 5.0942 17.0459C5.17782 17.2046 5.16458 17.2476 5.01716 17.295C4.84262 17.3513 4.8429 17.3612 5.03161 17.7941C5.51349 18.8995 5.50441 18.7673 5.54182 25.2194C5.58219 32.1743 5.69053 31.5936 4.58658 30.3412C3.82154 29.4734 3.31281 28.8335 3.17882 28.5706C3.12576 28.4664 3.03039 27.3152 2.96687 26.0123C2.85575 23.7298 2.904 21.1561 3.12928 17.3555L3.18707 16.3801L3.73367 15.6822C4.5563 14.6318 6.69141 12.5358 6.81309 12.6593C6.83457 12.681 6.92023 13.0333 7.00347 13.4422C7.21432 14.4782 7.71712 15.4651 8.03399 15.4651C8.10511 15.4651 8.15853 15.3644 8.15853 15.2302C8.15853 15.101 8.2002 14.9953 8.25113 14.9953C8.30956 14.9953 8.34373 14.341 8.34373 13.2204V11.4453L9.33915 10.7936C9.88668 10.4352 10.5429 10.0205 10.7976 9.87202C11.4729 9.47824 14.0265 8.14105 14.1079 8.1386C14.1462 8.13738 14.1774 8.23359 14.1774 8.35236ZM90.6091 9.54157L91.2727 9.91327L91.4789 10.7865C91.7939 12.1207 92.0236 13.432 92.1422 14.5725C92.2012 15.1409 92.2684 15.7011 92.2914 15.8174C92.3526 16.1267 92.5149 16.0756 92.5149 15.747C92.5149 15.5919 92.5565 15.4651 92.6075 15.4651C92.6666 15.4651 92.7001 14.6352 92.7001 13.1631C92.7001 11.8971 92.7238 10.8612 92.7528 10.8612C92.8203 10.8612 93.498 11.3251 94.2974 11.9184L94.9224 12.3823V22.5119V32.6415L94.2974 33.1064C93.0029 34.0692 90.1463 35.8535 89.899 35.8537C89.8608 35.8538 89.8295 29.8499 89.8295 22.5119C89.8295 15.1738 89.8557 9.16997 89.8876 9.16997C89.9195 9.16997 90.2442 9.33721 90.6091 9.54157ZM15.2396 12.3175C15.363 13.4544 15.4765 14.5537 15.492 14.7604L15.52 15.1362L14.9644 15.1975C14.6589 15.2311 14.399 15.2494 14.387 15.2379C14.3584 15.2108 14.7995 10.6726 14.8901 10.0626C14.9544 9.62961 14.962 9.61852 14.9876 9.92163C15.0029 10.1025 15.1162 11.1807 15.2396 12.3175ZM45.6238 22.7549C45.5665 22.9073 43.8467 23.6058 43.1944 23.7419C42.7211 23.8406 42.5436 23.8379 42.1295 23.7255L41.6325 23.5908L41.6085 19.4888L41.5843 15.3869L42.0714 15.2272C43.0627 14.9021 43.8718 14.2004 44.4616 13.1546C44.7081 12.7174 45.5311 10.3772 45.5904 9.94455C45.6028 9.85445 45.6241 12.6769 45.6376 16.2168C45.6511 19.7566 45.6449 22.6988 45.6238 22.7549ZM98.6086 16.3886C98.2709 16.4463 98.1633 16.3343 98.1633 15.9251V15.5336L98.4765 15.9456C98.7616 16.3209 98.7734 16.3604 98.6086 16.3886ZM39.7637 16.1569C39.9007 16.369 39.892 16.3935 39.566 16.7086C39.2644 17.0003 38.2297 17.7201 38.1121 17.7201C38.0678 17.7201 38.0465 16.4072 38.0907 16.4018C38.1035 16.4003 38.4055 16.298 38.762 16.1745C39.5812 15.8905 39.5917 15.8903 39.7637 16.1569ZM14.867 17.727C15.3785 18.3016 15.7402 19.1712 15.9874 20.4215C16.1105 21.0444 16.5311 24.6575 16.9526 28.7131C17.3635 32.6663 17.7602 36.4692 17.8341 37.164C17.9081 37.8588 17.9563 38.4399 17.9411 38.4552C17.865 38.5325 14.3553 37.0296 13.0264 36.3506L12.2921 35.9756L12.3141 35.3744C12.3263 35.0438 12.4188 33.9911 12.5198 33.0351C12.8852 29.5762 14.1774 17.2199 14.1774 17.1853C14.1774 17.0819 14.561 17.3832 14.867 17.727ZM40.6031 18.52C40.7621 19.2943 41.0587 22.4309 41.0148 22.8733C40.9847 23.1763 40.9668 23.1609 39.6566 21.7114C38.9263 20.9034 38.3429 20.2307 38.3602 20.2165C38.3775 20.2023 38.4592 20.1527 38.5419 20.1063C38.8964 19.9074 40.1051 18.4449 40.2108 18.0872C40.2714 17.882 40.3541 17.7477 40.3947 17.7888C40.4353 17.83 40.5291 18.159 40.6031 18.52ZM98.9628 18.4641C99.5497 18.8272 100.109 19.8503 100.337 20.9778C100.409 21.3306 100.529 22.2031 100.606 22.9166C100.738 24.1614 100.737 24.2433 100.558 24.9346C100.213 26.2711 99.6134 27.4928 98.6352 28.852L98.1633 29.5076V23.9584C98.1633 20.9062 98.1911 18.3809 98.2251 18.3465C98.3393 18.2304 98.6706 18.2832 98.9628 18.4641ZM40.5677 29.854C41.1533 30.1946 41.8971 30.6085 42.2205 30.7737C42.7303 31.0342 42.8007 31.1014 42.7506 31.2795C42.6589 31.6044 42.5299 32.9435 42.4185 34.7263C42.2586 37.2879 41.8525 39.0419 41.0691 40.5545C40.4991 41.655 39.8083 42.2498 38.9414 42.3864C38.4778 42.4595 38.2694 42.3083 38.1573 41.8175C38.1096 41.609 38.071 38.4897 38.0698 34.7518L38.0675 28.0592L38.7852 28.6469C39.1799 28.9701 39.982 29.5133 40.5677 29.854ZM66.8851 31.0985L66.8585 33.2492L66.6334 33.0347C66.2593 32.678 66.0973 32.0113 66.1458 31.0287C66.1847 30.241 66.2164 30.1229 66.5267 29.6112C66.713 29.3041 66.8654 29.0117 66.8654 28.9613C66.8654 28.9109 66.8757 28.8873 66.8885 28.9088C66.9013 28.9304 66.8997 29.9157 66.8851 31.0985ZM44.2181 31.8924C44.4689 32.0778 44.8856 32.3019 45.1441 32.3907L45.6142 32.552L45.6398 33.9047C45.6636 35.1688 45.6439 35.3513 45.3388 36.689C45.1391 37.5648 45.0122 38.3643 45.012 38.7488C45.0114 39.6869 44.7858 40.9248 44.3572 42.3404C44.1466 43.0361 43.9598 43.6209 43.942 43.64C43.9242 43.6592 43.7209 43.6461 43.49 43.611L43.0704 43.5472L43.0459 37.3616L43.0215 31.176L43.3919 31.3657C43.5956 31.47 43.9674 31.707 44.2181 31.8924ZM52.6421 32.9878L53.4001 33.2224L53.3309 34.0918C53.0644 37.4423 52.8138 39.0459 52.3694 40.2438C52.0616 41.0736 51.6852 41.7226 51.576 41.6119C51.401 41.4343 50.9624 38.7184 50.7469 36.4782C50.6879 35.8656 50.5262 34.777 50.3874 34.0588L50.1352 32.7532H51.0096C51.678 32.7532 52.0627 32.8086 52.6421 32.9878ZM55.3197 33.475L56.3209 33.5336L56.2872 37.8178C56.2552 41.8942 56.2436 42.1382 56.0487 42.8502C55.9359 43.2617 55.813 43.6278 55.7755 43.6637C55.738 43.6997 55.301 43.7591 54.8045 43.7958L53.9017 43.8625V38.5787V33.2951L54.1101 33.3557C54.2246 33.389 54.769 33.4428 55.3197 33.475ZM62.4865 35.0401L63.817 35.7129L63.7595 36.2296C63.4631 38.901 62.8909 40.7348 62.0525 41.7012C61.403 42.45 60.4335 42.7666 60.1784 42.3133C60.0882 42.1531 60.0482 41.0563 60.0131 37.7779L59.9668 33.4538L60.5615 33.9107C60.8886 34.1619 61.7549 34.6701 62.4865 35.0401ZM66.7106 37.2446C67.0433 37.6192 66.8664 42.3569 66.5054 42.7371C66.4681 42.7763 66.013 42.864 65.494 42.932L64.5504 43.0555V39.5478V36.0401L65.5459 36.5471C66.0933 36.826 66.6175 37.1398 66.7106 37.2446ZM49.7369 39.2458C49.832 39.4321 49.9575 39.876 50.0158 40.2324C50.074 40.5889 50.2297 41.2539 50.3615 41.7101C50.6286 42.634 50.6045 42.7085 50.0379 42.7113C49.4894 42.7139 49.4174 42.4655 49.3644 40.3895C49.3149 38.4488 49.3208 38.4309 49.7369 39.2458Z" fill="black"/>
</svg>
